<?xml version="1.0" encoding="utf-8"?>
<!-- Generator: Adobe Illustrator 28.1.0, SVG Export Plug-In . SVG Version: 6.00 Build 0)  -->
<svg version="1.1" id="_圖層_1" xmlns="http://www.w3.org/2000/svg" xmlns:xlink="http://www.w3.org/1999/xlink" x="0px" y="0px"
	 viewBox="0 0 60 60" style="enable-background:new 0 0 60 60;" xml:space="preserve">
<style type="text/css">
	.st0{fill:#B38E55;}
</style>
<path class="st0" d="M59.1,55.5c0,1-0.4,1.8-1,2.5c-0.7,0.6-1.5,1-2.5,1h-26C19.3,58.9,9.3,53.3,4.2,43.4
	C-3.3,29.3,2.3,11.7,16.4,4.3c14.2-7.4,31.7-1.9,39.2,12.3c0,0.1,0.1,0.1,0.1,0.2l3.4-1.8l-0.6,15l-6.3-4l-6.3-4l3.7-1.9
	c0-0.1-0.1-0.1-0.1-0.2C43.7,9.1,30.4,4.9,19.7,10.5C8.9,16.1,4.8,29.4,10.4,40.2c3.9,7.4,11.4,11.7,19.3,11.8h26
	C57.6,52,59.1,53.5,59.1,55.5z"/>
<path class="st0" d="M19.4,41.3c-0.5,0-0.9-0.2-1.2-0.5c-0.7-0.7-0.7-1.8,0-2.5l9.7-9.7V13c0-1,0.8-1.8,1.8-1.8s1.8,0.8,1.8,1.8
	v16.3c0,0.5-0.2,0.9-0.5,1.2L20.7,40.8C20.3,41.1,19.9,41.3,19.4,41.3z"/>
<path class="st0" d="M33.2,42.8h22.5c1.9,0,3.5,1.6,3.5,3.5l0,0c0,1.9-1.6,3.5-3.5,3.5H33.2c-1.9,0-3.5-1.6-3.5-3.5l0,0
	C29.6,44.4,31.2,42.8,33.2,42.8z"/>
<path class="st0" d="M45.2,34.2h10.5c1.9,0,3.5,1.6,3.5,3.5l0,0c0,1.9-1.6,3.5-3.5,3.5H45.2c-1.9,0-3.5-1.6-3.5-3.5l0,0
	C41.6,35.8,43.2,34.2,45.2,34.2z"/>
</svg>
