<?xml version="1.0" encoding="UTF-8"?>
<svg id="_圖層_1" data-name="圖層 1" xmlns="http://www.w3.org/2000/svg" viewBox="0 0 500 500">
  <defs>
    <style>
      .cls-1 {
        fill: #b38e55;
      }

      .cls-1, .cls-2 {
        stroke-width: 0px;
      }

      .cls-2 {
        fill: #99774a;
      }
    </style>
  </defs>
  <g>
    <rect class="cls-1" x="319.01" y="28.06" width="74.64" height="224.3" rx="11.11" ry="11.11" transform="translate(509.16 491.32) rotate(-135)"/>
    <ellipse class="cls-1" cx="428.97" cy="67.57" rx="16.91" ry="37.32" transform="translate(77.86 323.12) rotate(-45)"/>
    <ellipse class="cls-1" cx="285.26" cy="211.28" rx="16.91" ry="37.32" transform="translate(-65.85 263.59) rotate(-45)"/>
    <g>
      <path class="cls-2" d="M156.73,162.72h24.39v324.31c0,3.03-2.46,5.48-5.48,5.48h-13.43c-3.03,0-5.48-2.46-5.48-5.48V162.72h0Z" transform="translate(56.71 678.73) rotate(-135)"/>
      <path class="cls-2" d="M52.32,444.22l8.62,8.62-9.68,1.06-5.17.57c-2.32.25-4.27-1.7-4.02-4.02l.57-5.17,1.06-9.68,8.62,8.62Z"/>
    </g>
  </g>
  <g>
    <path class="cls-1" d="M109.98,39.01c-35.41-3.56-49.76,17.08-49.76,17.08l47.14,24.31s3.04,31.73-11.53,25.34c-14.56-6.39-51.64-18.53-51.64-18.53,0,0,.21,77.31,59.29,91.97,46.61,14.14,52.59,19.91,62.01,26.81,9.43,6.92,233.61,248.9,233.61,248.9,0,0,20.11,15.71,37.5-1.68,17.39-17.39,1.05-38.76,1.05-38.76,0,0-226.59-227.42-239.05-241.14-12.47-13.72-27.76-47.04-35.94-83.07-8.17-36.04-17.28-47.66-52.69-51.23ZM427.44,443.32c-6.6,6.6-17.29,6.6-23.89,0s-6.6-17.29,0-23.89c6.6-6.6,17.29-6.6,23.89,0s6.6,17.29,0,23.89Z"/>
    <path class="cls-2" d="M392.24,428.23s-3.3-7.39,4.87-15.56c8.17-8.17,18.23-5.03,18.23-5.03l-218.1-218.42s-8.17-7.86-15.4-.63c-7.23,7.23-1.1,13.99-1.1,13.99l211.5,225.65Z"/>
  </g>
</svg>