<?xml version="1.0" encoding="UTF-8"?>
<svg id="_圖層_1" data-name="圖層 1" xmlns="http://www.w3.org/2000/svg" viewBox="0 0 500 500">
  <defs>
    <style>
      .cls-1 {
        fill: #876844;
      }

      .cls-1, .cls-2, .cls-3, .cls-4, .cls-5 {
        stroke-width: 0px;
      }

      .cls-2 {
        fill: #7f6341;
      }

      .cls-3 {
        fill: #a57f53;
      }

      .cls-4 {
        fill: #685137;
      }

      .cls-5 {
        fill: #99774a;
      }
    </style>
  </defs>
  <path class="cls-5" d="M8.11,328.5v149.93h149.93v-149.93H8.11ZM125.05,445.43H41.11v-83.94h83.94v83.94Z"/>
  <polygon class="cls-1" points="309.91 328.49 158.05 478.43 158.05 328.49 309.91 178.55 309.91 328.49"/>
  <polygon class="cls-3" points="158.05 328.49 8.11 328.49 159.97 178.55 309.91 178.55 158.05 328.49"/>
  <polygon class="cls-2" points="38.71 448.48 131.62 354.93 40.31 356.21 38.71 448.48"/>
  <polygon class="cls-4" points="131.62 354.93 38.71 448.48 130.02 447.2 131.62 354.93"/>
  <path class="cls-5" d="M190.09,328.5v149.93h149.93v-149.93h-149.93ZM307.03,445.43h-83.94v-83.94h83.94v83.94Z"/>
  <polygon class="cls-1" points="491.89 328.49 340.03 478.43 340.03 328.49 491.89 178.55 491.89 328.49"/>
  <polygon class="cls-3" points="340.03 328.49 190.09 328.49 341.95 178.55 491.89 178.55 340.03 328.49"/>
  <polygon class="cls-2" points="220.68 448.48 313.6 354.93 222.29 356.21 220.68 448.48"/>
  <polygon class="cls-4" points="313.6 354.93 220.68 448.48 311.99 447.2 313.6 354.93"/>
  <path class="cls-5" d="M100.38,171.51v149.93h149.93v-149.93H100.38ZM217.32,288.45h-83.94v-83.94h83.94v83.94Z"/>
  <polygon class="cls-1" points="402.18 171.51 250.32 321.45 250.32 171.51 402.18 21.57 402.18 171.51"/>
  <polygon class="cls-3" points="250.32 171.51 100.38 171.51 252.24 21.57 402.18 21.57 250.32 171.51"/>
  <polygon class="cls-2" points="130.98 291.49 223.89 197.94 132.58 199.22 130.98 291.49"/>
  <polygon class="cls-4" points="223.89 197.94 130.98 291.49 222.29 290.21 223.89 197.94"/>
</svg>