<?xml version="1.0" encoding="utf-8"?>
<!-- Generator: Adobe Illustrator 28.1.0, SVG Export Plug-In . SVG Version: 6.00 Build 0)  -->
<svg version="1.1" id="_圖層_1" xmlns="http://www.w3.org/2000/svg" xmlns:xlink="http://www.w3.org/1999/xlink" x="0px" y="0px"
	 viewBox="0 0 500 500" style="enable-background:new 0 0 500 500;" xml:space="preserve">
<style type="text/css">
	.st0{fill:#876844;}
	.st1{fill:#A57F53;}
</style>
<path class="st0" d="M448.6,204.3C448.6,314,250,494.4,250,494.4S51.4,314,51.4,204.3c0-3,0.1-5.9,0.2-8.9
	C119.5,293.6,250,457.6,250,457.6s131.7-171.1,198.4-262.2C448.6,198.3,448.6,201.3,448.6,204.3z"/>
<path class="st1" d="M250,5.6C143.3,5.6,56.2,89.8,51.6,195.4C58.6,305.6,250,464.2,250,464.2s191.4-158.6,198.4-268.8
	C443.8,89.8,356.7,5.6,250,5.6z M250,278.7c-57.6,0-104.3-46.7-104.3-104.3S192.4,70.1,250,70.1s104.3,46.7,104.3,104.3
	S307.6,278.7,250,278.7z"/>
</svg>
