<?xml version="1.0" encoding="utf-8"?>
<!-- Generator: Adobe Illustrator 28.1.0, SVG Export Plug-In . SVG Version: 6.00 Build 0)  -->
<svg version="1.1" id="_圖層_1" xmlns="http://www.w3.org/2000/svg" xmlns:xlink="http://www.w3.org/1999/xlink" x="0px" y="0px"
	 viewBox="0 0 500 500" style="enable-background:new 0 0 500 500;" xml:space="preserve">
<style type="text/css">
	.st0{fill:#876844;}
	.st1{fill:#A57F53;}
</style>
<path class="st0" d="M441,450.2c-11.8,16.5-33.8,31.6-70,39.4c-78.2,16.9-197.6-73.8-243.8-120.5S12.3,254.2,10.7,141.1
	C10,96.4,24.6,73.4,42.4,61.8c-9,13.6,19.2,33,19.6,61.7c1.7,113.2,67.9,167.7,114,214.4c46.2,46.7,134.7,112.9,213,96
	C412,429,428.4,459.5,441,450.2z"/>
<path class="st1" d="M441,450.2c-12.5,9.3-29.8,17.1-52.7,22.1c-78.2,16.9-197.6-73.8-243.8-120.5C98.3,305,29.7,236.9,28,123.8
	c-0.4-28.7,5.4-48.5,14.4-62c4.7-3.1,9.7-5.4,14.7-7c22.7-7.5,47.7-2.1,66.2,13c81.4,66.6,60.2,94.1,60.2,94.1l-47.8,50.7
	c0,0,26.5,56.3,67.6,98s85.6,56.3,85.6,56.3s33.8-32.1,52.9-47.8c19.1-15.8,91.2,51.2,105.3,77.1C454.5,410,454.6,431.1,441,450.2z"
	/>
<path class="st1" d="M381.6,238.7h-38c0-46.6-38-84.6-84.6-84.6v-38C326.6,116.1,381.6,171.1,381.6,238.7z"/>
<path class="st1" d="M489.4,238.7h-38c0-106.1-86.3-192.4-192.4-192.4v-38C386,8.4,489.3,111.7,489.4,238.7L489.4,238.7z"/>
</svg>
