<?xml version="1.0" encoding="UTF-8"?>
<svg id="_圖層_1" data-name="圖層 1" xmlns="http://www.w3.org/2000/svg" viewBox="0 0 60 200">
  <defs>
    <style>
      .cls-1 {
        fill: #702800;
        stroke-width: 0px;
      }
    </style>
  </defs>
  <rect class="cls-1" x="34.36" y="1.33" width="1.12" height="198.61"/>
  <g>
    <path class="cls-1" d="M27.6,197.05c-.23.23-.5.34-.82.34h-15.26c-.32,0-.59-.11-.83-.34s-.35-.5-.35-.82v-5.93c0-1.76.41-3.14,1.22-4.15.81-1.01,1.93-1.51,3.36-1.51.92,0,1.71.22,2.38.65.66.44,1.16,1.02,1.5,1.76.34-1.04.86-1.86,1.57-2.48s1.59-.92,2.63-.92c1.63,0,2.86.55,3.69,1.65.84,1.1,1.26,2.71,1.26,4.84v6.08c0,.32-.11.59-.34.82ZM17.94,190.9c0-1.44-.24-2.47-.72-3.09-.48-.62-1.19-.93-2.12-.93-.79,0-1.41.32-1.87.97-.46.65-.69,1.52-.69,2.63v4.27c0,.2.1.3.3.3h5.1v-4.15ZM25.76,194.75v-4.37c0-1.57-.24-2.71-.72-3.41-.48-.7-1.19-1.04-2.15-1.04-1.89,0-2.84,1.47-2.84,4.42v4.7h5.4c.2,0,.3-.1.3-.3Z"/>
    <path class="cls-1" d="M27.73,180.82c-.23.22-.5.33-.82.33-.12,0-.28-.04-.5-.13l-15.13-6.41c-.33-.15-.59-.35-.78-.6-.18-.25-.28-.54-.28-.88v-.25c0-.33.09-.63.28-.88.18-.25.44-.45.78-.6l15.13-6.41c.22-.08.39-.13.5-.13.32,0,.59.11.82.33.23.22.34.49.34.83,0,.25-.06.47-.19.67-.13.19-.31.34-.54.44l-3.9,1.63v8.5l3.9,1.63c.23.1.41.25.54.44.13.19.19.41.19.67,0,.34-.11.61-.34.83ZM21.31,169.64l-7.62,3.17c-.12.05-.18.12-.18.2s.06.15.18.2l7.62,3.17v-6.74Z"/>
    <path class="cls-1" d="M27.09,158.3c-.74,1.36-1.79,2.42-3.17,3.18s-2.97,1.14-4.78,1.14-3.43-.39-4.8-1.16c-1.36-.75-2.4-1.8-3.14-3.13s-1.11-2.84-1.11-4.54c0-1.11.13-2.1.38-2.99.25-.89.65-1.8,1.18-2.74.18-.39.51-.58.98-.58.25,0,.48.1.68.29.2.19.3.44.3.74,0,.18-.03.34-.1.45-.4.77-.7,1.51-.89,2.21s-.29,1.5-.29,2.39c0,1.44.29,2.66.88,3.64.59.99,1.39,1.75,2.4,2.27,1.01.53,2.19.79,3.53.79s2.51-.26,3.49-.78c1.06-.52,1.87-1.29,2.45-2.31.58-1.02.87-2.23.87-3.62,0-.89-.1-1.68-.29-2.39-.19-.7-.49-1.44-.89-2.21-.07-.12-.1-.27-.1-.45,0-.3.1-.55.29-.74.19-.19.42-.29.69-.29.45,0,.78.19.98.58.54.94.93,1.85,1.18,2.74.25.89.38,1.89.38,2.99,0,1.68-.37,3.18-1.11,4.5Z"/>
    <path class="cls-1" d="M27.73,143.76c-.23.23-.5.34-.82.34h-15.51c-.32,0-.59-.11-.83-.34s-.35-.5-.35-.82.12-.59.35-.83.51-.35.83-.35h7.94l-8.72-8.55c-.27-.22-.4-.51-.4-.88,0-.3.1-.56.29-.77.19-.21.44-.31.74-.31.32,0,.59.09.8.28l5.76,5.81,8.37-6.66c.23-.18.5-.28.8-.28s.56.11.77.34c.21.23.31.49.31.79,0,.37-.15.68-.45.93l-8.24,6.46,2.84,2.84h4.7c.32,0,.59.12.82.35.23.23.34.51.34.83s-.11.59-.34.82Z"/>
  </g>
  <polygon class="cls-1" points="49.9 16.65 49.12 17.51 34.36 1.7 34.36 0 49.9 16.65"/>
</svg>