<?xml version="1.0" encoding="UTF-8"?>
<svg id="_圖層_1" data-name="圖層 1" xmlns="http://www.w3.org/2000/svg" viewBox="0 0 1000 218">
  <defs>
    <style>
      .cls-1 {
        fill: #fff;
        stroke-width: 0px;
      }
    </style>
  </defs>
  <g>
    <g>
      <rect class="cls-1" x="51.01" y="101.29" width="119.5" height="15.43"/>
      <path class="cls-1" d="M192.32,75.22H29.21c2.26-5.44,5.05-10.61,8.3-15.43h146.51c3.25,4.83,6.04,9.99,8.3,15.43Z"/>
      <rect class="cls-1" x="77.47" y="141.45" width="66.58" height="15.43" transform="translate(259.93 38.4) rotate(90)"/>
      <rect class="cls-1" x="51.01" y="74.76" width="15.43" height="107.7"/>
      <path class="cls-1" d="M177.23,167.02h19.52c-3.69,5.44-7.92,10.56-12.66,15.31l-.12.12c-17.74,17.69-40.76,28.16-65.49,29.97-2.55.19-5.13.28-7.71.28s-5.16-.09-7.72-.28c-24.79-1.81-47.86-12.34-65.61-30.09-19.59-19.59-30.38-45.63-30.38-73.34,0-11.67,1.91-23.05,5.59-33.78,1.83-5.32,4.09-10.48,6.77-15.43,4.74-8.76,10.77-16.88,18.01-24.12C55.18,17.91,78.25,7.39,103.05,5.58c2.56-.19,5.13-.28,7.72-.28s5.16.09,7.71.28c24.79,1.81,47.86,12.34,65.62,30.09,7.24,7.24,13.28,15.36,18.01,24.12,2.68,4.95,4.94,10.11,6.76,15.43h-16.55c-2.26-5.44-5.05-10.6-8.3-15.43-14.52-21.54-38.28-36.36-65.54-38.73-2.54-.22-5.12-.34-7.71-.34s-5.18.11-7.72.34c-27.26,2.37-51.02,17.19-65.54,38.73-3.25,4.83-6.04,9.99-8.3,15.43-4.33,10.41-6.72,21.82-6.72,33.78,0,46.07,35.48,84.02,80.56,87.94,2.54.22,5.12.34,7.72.34s5.17-.11,7.71-.34c15.14-1.31,29.2-6.46,41.19-14.48,6.52-4.35,12.43-9.55,17.57-15.43Z"/>
      <path class="cls-1" d="M177.23,167.03c-5.14,5.88-11.04,11.08-17.56,15.43h-56.62v-15.43h74.18Z"/>
    </g>
    <g>
      <rect class="cls-1" x="43.95" y="101.29" width="119.5" height="15.43"/>
      <path class="cls-1" d="M185.26,75.22H22.15c2.26-5.44,5.05-10.61,8.3-15.43h146.51c3.25,4.83,6.04,9.99,8.3,15.43Z"/>
      <rect class="cls-1" x="70.41" y="141.45" width="66.58" height="15.43" transform="translate(252.87 45.46) rotate(90)"/>
      <rect class="cls-1" x="43.95" y="74.76" width="15.43" height="107.7"/>
      <path class="cls-1" d="M170.18,167.02h19.52c-3.69,5.44-7.92,10.56-12.66,15.31l-.12.12c-17.74,17.69-40.76,28.16-65.49,29.97-2.55.19-5.13.28-7.71.28s-5.16-.09-7.72-.28c-24.79-1.81-47.86-12.34-65.61-30.09C10.79,162.74,0,136.7,0,109c0-11.67,1.91-23.05,5.59-33.78,1.83-5.32,4.09-10.48,6.77-15.43,4.74-8.76,10.77-16.88,18.01-24.12C48.13,17.91,71.2,7.39,95.99,5.58c2.56-.19,5.13-.28,7.72-.28s5.16.09,7.71.28c24.79,1.81,47.86,12.34,65.62,30.09,7.24,7.24,13.28,15.36,18.01,24.12,2.68,4.95,4.94,10.11,6.76,15.43h-16.55c-2.26-5.44-5.05-10.6-8.3-15.43-14.52-21.54-38.28-36.36-65.54-38.73-2.54-.22-5.12-.34-7.71-.34s-5.18.11-7.72.34c-27.26,2.37-51.02,17.19-65.54,38.73-3.25,4.83-6.04,9.99-8.3,15.43-4.33,10.41-6.72,21.82-6.72,33.78,0,46.07,35.48,84.02,80.56,87.94,2.54.22,5.12.34,7.72.34s5.17-.11,7.71-.34c15.14-1.31,29.2-6.46,41.19-14.48,6.52-4.35,12.43-9.55,17.57-15.43Z"/>
      <path class="cls-1" d="M170.17,167.03c-5.14,5.88-11.04,11.08-17.56,15.43h-56.62v-15.43h74.18Z"/>
    </g>
  </g>
  <g>
    <path class="cls-1" d="M232.35,159.43c1.23-.97,3.18-1.46,5.84-1.46h74.26c7.28-23.78,12.61-43.76,15.99-59.96,1.23-6.15,2.3-9.94,3.23-11.38,1.43-1.94,3.43-2.92,5.99-2.92,5.12,0,7.69,2.21,7.69,6.61,0,2.97-2.97,14.09-8.91,33.36l-11.07,34.29h36.44c5.12,0,7.69,2.05,7.69,6.15s-2.56,6.15-7.69,6.15h-123.61c-5.13,0-7.69-2.05-7.69-6.15,0-2.15.61-3.71,1.85-4.69ZM238.12,73.64c-1.28-.97-1.92-2.54-1.92-4.69s.64-3.71,1.92-4.69,3.25-1.46,5.92-1.46h48.43v-16.14c0-5.02,2.25-7.53,6.76-7.53,2.26,0,3.9.61,4.93,1.85,1.02,1.23,1.53,3.13,1.53,5.69v16.14h50.12c2.66,0,4.63.49,5.92,1.46s1.93,2.54,1.93,4.69-.65,3.72-1.93,4.69-3.25,1.46-5.92,1.46h-111.78c-2.66,0-4.63-.49-5.92-1.46ZM259.41,88.01c2.77,0,4.82,1.44,6.15,4.3,1.64,3.59,4.3,12.15,7.99,25.68,3.8,14.45,5.69,22.65,5.69,24.6,0,4.51-2.36,6.76-7.07,6.76-3.9,0-6.61-3.79-8.15-11.38-1.44-7.17-2.82-13.53-4.15-19.06-.61-2.36-1.64-5.9-3.08-10.61l-1.38-4.77c-.21-.72-.44-1.46-.69-2.23-.26-.77-.49-1.56-.69-2.38-.92-2.97-1.39-4.71-1.39-5.23,0-3.79,2.26-5.69,6.77-5.69Z"/>
    <path class="cls-1" d="M398.7,168.35c-2.77-2.72-3.95-6.94-3.53-12.68V62.03c-.42-5.84.77-10.15,3.53-12.91s7.18-4,13.22-3.69h106.39c4.93,0,7.38,2,7.38,6s-2.46,5.84-7.38,5.84h-102.7c-5.02,0-7.53,2.51-7.53,7.53v88.09c0,5.13,2.51,7.69,7.53,7.69h105.62c4.81,0,7.22,1.95,7.22,5.84s-2.41,5.99-7.22,5.99h-109.31c-6.05,0-10.46-1.36-13.22-4.07ZM415.47,141.21c4.81-5.95,7.84-12.61,9.06-19.99,1.02-6.76,1.54-17.83,1.54-33.21l-.15-4c-.31-7.89,4.25-12.14,13.69-12.76,30.34-2.05,50.68-4.3,61.03-6.76l2.61-.31c2.26-.31,3.97.18,5.15,1.46,1.18,1.28,1.77,3.1,1.77,5.46,0,1.54-1.02,2.87-3.08,4-2.05,1.13-5.07,1.95-9.06,2.46l-19.68,2.31c-1.54.1-3.95.36-7.23.77-9.22,1.02-17.01,1.54-23.37,1.54s-9.43,1.49-9.84,4.46l-.15,2.77.15,10-.15,1.85h74.26c4.71,0,7.07,1.95,7.07,5.84s-2.36,5.84-7.07,5.84h-22.91v33.05c0,5.23-2.05,7.84-6.15,7.84s-6.15-2.61-6.15-7.84v-33.05h-39.2c-.61,10.97-2.98,20.5-7.07,28.6-1.85,3.69-3.74,6.51-5.69,8.45-1.95,1.95-3.74,2.92-5.38,2.92-4.21,0-6.31-2.15-6.31-6.46,0-1.64.77-3.38,2.31-5.23Z"/>
    <path class="cls-1" d="M545.37,161.04c0-4.2,2.61-6.31,7.84-6.31h54.58V62.34h-44.74c-5.23,0-7.84-2.1-7.84-6.3s2.61-6.46,7.84-6.46h103.47c5.43,0,8.15,2.15,8.15,6.46s-2.71,6.3-8.15,6.3h-45.51v92.4h55.35c5.33,0,7.99,2.1,7.99,6.31s-2.66,6.46-7.99,6.46h-123.15c-5.23,0-7.84-2.15-7.84-6.46Z"/>
    <path class="cls-1" d="M725.41,171.96v-61.03c-1.95,7.28-4.87,14.76-8.76,22.44-3.59,7.28-6.61,10.92-9.07,10.92-3.69,0-5.53-2.15-5.53-6.46,0-1.64,1.02-3.9,3.08-6.76,8.91-12.61,15.27-26.54,19.06-41.82h-13.99c-4.82,0-7.23-1.95-7.23-5.84s2.41-5.84,7.23-5.84h15.22v-21.06c-8.71,1.23-14.35,1.85-16.91,1.85-3.69,0-5.54-2.15-5.54-6.46,0-2.05.83-3.43,2.46-4.15,1.74-.72,5.43-1.38,11.07-2,10.76-1.02,20.55-2.72,29.36-5.07l3.08-.46c2.26-.31,3.97.13,5.15,1.31,1.18,1.18,1.77,2.9,1.77,5.15,0,1.64-.92,3.07-2.77,4.3-1.95,1.33-7.23,2.67-15.84,4v22.6h11.07c4.82,0,7.23,1.95,7.23,5.84s-2.41,5.84-7.23,5.84h-11.07v19.83c.92-1.54,2.31-2.31,4.15-2.31.92,0,2.25.77,4,2.31,1.74,1.54,3.74,3.79,5.99,6.76,4.51,6.05,6.76,9.89,6.76,11.53,0,3.59-1.74,5.38-5.22,5.38-1.74,0-3.64-1.64-5.69-4.92-2.15-3.48-4.97-7.38-8.46-11.69l-1.54-2.61v58.42c0,4.61-1.99,6.92-5.99,6.92s-5.84-2.3-5.84-6.92ZM754.01,161.2h35.98v-18.14h-24.6c-4,0-5.99-1.79-5.99-5.38s1.99-5.38,5.99-5.38h24.6v-15.84l-24.75,1.69c-2.36.1-4.15-.36-5.38-1.38-1.23-1.02-1.85-2.56-1.85-4.61,0-1.94.67-3.38,2-4.3,1.33-1.02,5.43-1.59,12.3-1.69,19.88-.61,36.9-2.2,51.04-4.77l2-.31c2.05-.31,3.66.13,4.84,1.31,1.18,1.18,1.77,2.84,1.77,5,0,2.46-2.26,4.25-6.77,5.38-1.64.41-9.28,1.33-22.9,2.77v16.76h25.68c3.89,0,5.84,1.8,5.84,5.38s-1.95,5.38-5.84,5.38h-25.68v18.14h34.13c4.1,0,6.15,1.9,6.15,5.69s-2.05,5.54-6.15,5.54h-82.4c-4,0-5.99-1.9-5.99-5.69s1.99-5.54,5.99-5.54ZM759.08,59.42c0-4.71,1.05-8.15,3.16-10.3,2.1-2.15,5.4-3.07,9.92-2.77h48.28c4.71,0,8.15,1.05,10.3,3.15s3.08,5.41,2.77,9.92v22.6c0,4.82-1.02,8.28-3.08,10.38s-5.38,3-9.99,2.69h-48.28c-4.72,0-8.15-1.02-10.31-3.08-2.15-2.05-3.07-5.38-2.77-9.99v-22.6ZM775.69,84.02h40.89c3.28,0,4.97-1.69,5.08-5.07v-16.45c0-3.18-1.69-4.87-5.08-5.07h-40.89c-3.18,0-4.87,1.69-5.07,5.07v16.45c0,3.18,1.69,4.87,5.07,5.07Z"/>
    <path class="cls-1" d="M865.47,110.31c10.97-8.5,21.01-19.42,30.13-32.75,2.05-2.77,4.21-4.15,6.46-4.15,4.51,0,6.77,1.9,6.77,5.69,0,3.07-4.97,10.05-14.91,20.91v71.03c0,2.77-.51,4.77-1.54,5.99-1.02,1.23-2.67,1.85-4.92,1.85s-3.9-.61-4.92-1.85c-1.03-1.23-1.54-3.23-1.54-5.99v-57.5c-4.1,4.21-7.38,7.23-9.84,9.07-2.46,1.85-4.36,2.77-5.69,2.77-2.05,0-3.54-.56-4.46-1.69-.92-1.13-1.39-2.82-1.39-5.07,0-2.46,1.95-5.23,5.84-8.3ZM867.93,60.03c6.97-3.69,14.96-9.28,23.98-16.76,2.97-2.46,5.18-3.69,6.62-3.69,2.05,0,3.66.54,4.84,1.61,1.18,1.08,1.77,2.64,1.77,4.69,0,2.67-5.53,8.1-16.6,16.3-10.87,8.1-18.29,12.14-22.3,12.14-2.05,0-3.53-.54-4.46-1.61s-1.39-2.74-1.39-4.99c0-2.46,2.52-5.02,7.54-7.69ZM938.35,170.57c0-4.51,2.66-6.76,8-6.76h9.22c2.56,0,4.46-.59,5.69-1.77,1.23-1.18,1.84-3.05,1.84-5.61v-55.96h-41.36c-4.92,0-7.38-2.1-7.38-6.31s2.46-6.15,7.38-6.15h70.57c5.12,0,7.69,2.05,7.69,6.15s-2.56,6.31-7.69,6.31h-16.45v59.81c.41,6.04-.77,10.5-3.54,13.38-2.77,2.87-7.12,4.15-13.07,3.84h-12.91c-5.33,0-8-2.31-8-6.92ZM922.74,47.5c1.18-1.08,2.9-1.61,5.15-1.61h60.27c4.61,0,6.92,2.1,6.92,6.31s-2.31,6.3-6.92,6.3h-60.27c-2.25,0-3.97-.54-5.15-1.61-1.18-1.08-1.77-2.64-1.77-4.69s.59-3.61,1.77-4.69Z"/>
  </g>
</svg>