<?xml version="1.0" encoding="UTF-8"?>
<svg id="_圖層_1" data-name="圖層 1" xmlns="http://www.w3.org/2000/svg" viewBox="0 0 60 60">
  <defs>
    <style>
      .cls-1 {
        fill: #fff;
      }

      .cls-1, .cls-2 {
        stroke-width: 0px;
      }

      .cls-2 {
        fill: #1e1c2a;
      }
    </style>
  </defs>
  <g>
    <rect class="cls-1" x=".97" y=".97" width="58.06" height="58.06" rx="5.59" ry="5.59"/>
    <path class="cls-2" d="M6.56,0h46.88c3.62,0,6.56,2.94,6.56,6.56v46.88c0,3.62-2.94,6.56-6.56,6.56H6.56c-3.62,0-6.56-2.94-6.56-6.56V6.56C0,2.94,2.94,0,6.56,0ZM53.44,58.06c2.55,0,4.62-2.07,4.62-4.62V6.56c0-2.55-2.07-4.62-4.62-4.62H6.56C4.01,1.94,1.94,4.01,1.94,6.56v46.88c0,2.55,2.07,4.62,4.62,4.62h46.88Z"/>
  </g>
  <path class="cls-2" d="M10.12,33.21v-6.41c0-1.02.83-1.85,1.85-1.85h15.13s0-5.95,0-5.95c0-1.43,1.54-2.32,2.78-1.61l9.54,5.51,9.53,5.51c1.24.71,1.24,2.5,0,3.21l-9.53,5.51-9.54,5.51c-1.24.71-2.78-.18-2.78-1.61v-5.95s-15.13,0-15.13,0c-1.02,0-1.85-.83-1.85-1.85Z"/>
</svg>